<svg width="192" height="192" xmlns="http://www.w3.org/2000/svg">
  <defs>
    <linearGradient id="metalGold" x1="0%" y1="0%" x2="0%" y2="100%">
      <stop offset="0%" style="stop-color:#fbbf24;stop-opacity:1" />
      <stop offset="50%" style="stop-color:#f59e0b;stop-opacity:1" />
      <stop offset="100%" style="stop-color:#d97706;stop-opacity:1" />
    </linearGradient>
    
    <linearGradient id="metalRed" x1="0%" y1="0%" x2="0%" y2="100%">
      <stop offset="0%" style="stop-color:#ef4444;stop-opacity:1" />
      <stop offset="50%" style="stop-color:#dc2626;stop-opacity:1" />
      <stop offset="100%" style="stop-color:#991b1b;stop-opacity:1" />
    </linearGradient>

    <pattern id="parchment" x="0" y="0" width="20" height="20" patternUnits="userSpaceOnUse">
      <rect width="20" height="20" fill="#1c1917"/>
      <circle cx="5" cy="5" r="0.5" fill="#292524" opacity="0.3"/>
      <circle cx="15" cy="10" r="0.5" fill="#292524" opacity="0.3"/>
      <circle cx="10" cy="15" r="0.5" fill="#292524" opacity="0.3"/>
    </pattern>
  </defs>

  <rect width="192" height="192" fill="url(#parchment)" rx="38"/>
  <rect width="192" height="192" fill="none" stroke="url(#metalGold)" stroke-width="6" rx="38"/>
  
  <!-- Médaille simplifiée sans texte -->
  <circle cx="96" cy="83" r="45" fill="#1c1917" stroke="url(#metalGold)" stroke-width="6"/>
  <g transform="translate(96, 83)">
    <path d="M 0 -32 L 9 -10 L 32 -10 L 13 4 L 22 26 L 0 13 L -22 26 L -13 4 L -32 -10 L -9 -10 Z" 
          fill="url(#metalGold)"/>
  </g>
  
  <!-- Ruban -->
  <path d="M 96 128 L 86 148 L 86 173 L 96 160 L 106 173 L 106 148 Z" 
        fill="url(#metalRed)" stroke="#991b1b" stroke-width="3"/>
</svg>